{"title":"Assorted Videos  -  Cevens to The Who - Ehhhhtozebec","uid":5394558,"size":987099290,"categoryP":"video","categoryS":"music_videos","magnet":"?xt=urn:btih:bca4850099da524d34d98bb765e53ffc8730465f&amp;dn=Assorted+Videos++-++Cevens+to+The+Who+-+Ehhhhtozebec&amp;tr=udp%3A%2F%2Ftracker.openbittorrent.com%3A80&amp;tr=udp%3A%2F%2Fopen.demonii.com%3A1337&amp;tr=udp%3A%2F%2Ftracker.coppersurfer.tk%3A6969&amp;tr=udp%3A%2F%2Fexodus.desync.com%3A6969","seeders":0,"leechers":0,"uploader":"mynameisurlz","files":9,"time":1267185519,"description":"compilation of live performances from Cat Stevens, Eric Clapton, Fleetwood Mac, James Taylor, Neil Young, Steve Winwood, Supertramp and the Who\n\nGeneral\nComplete name                    : C:Documents and SettingsMynameisurlzDesktopAssorted Videos  -  Cat Stevens to The Who - EhhhhtozebecCat Stevens - Father and Son - Ehhhhtozebec.avi\nFormat                           : AVI\nFormat/Info                      : Audio Video Interleave\nFormat settings                  : rec\nFile size                        : 43.3 MiB\nDuration                         : 4mn 31s\nOverall bit rate                 : 1 337 Kbps\n\nVideo\nID                               : 0\nFormat                           : MPEG-4 Visual\nFormat settings, BVOP            : No\nFormat settings, QPel            : No\nFormat settings, GMC             : No warppoints\nFormat settings, Matrix          : Default (H.263)\nCodec ID                         : DIVX\nCodec ID/Info                    : Project Mayo\nCodec ID/Hint                    : DivX 4\nDuration                         : 4mn 31s\nBit rate                         : 1 203 Kbps\nWidth                            : 704 pixels\nHeight                           : 480 pixels\nDisplay aspect ratio             : 1.467\nFrame rate                       : 29.970 fps\nResolution                       : 8 bits\nColorimetry                      : 4:2:0\nScan type                        : Progressive\nBits/(Pixel*Frame)               : 0.119\nStream size                      : 39.0 MiB (90%)\nWriting library                  : avc2.0.11.1110\n\nAudio\nID                               : 1\nFormat                           : MPEG Audio\nFormat version                   : Version 1\nFormat profile                   : Layer 3\nMode                             : Joint stereo\nFormat_Settings_ModeExtension    : MS Stereo\nCodec ID                         : 55\nCodec ID/Hint                    : MP3\nDuration                         : 4mn 31s\nBit rate mode                    : Constant\nBit rate                         : 128 Kbps\nChannel(s)                       : 2 channels\nSampling rate                    : 48.0 KHz\nVideo delay                      : 13ms\nStream size                      : 4.15 MiB (10%)\nAlignment                        : Split accross interleaves\nInterleave, duration             : 2493 ms (74.71 video frames)\n\nGeneral\nComplete name                    : C:Documents and SettingsMynameisurlzDesktopAssorted Videos  -  Cat Stevens to The Who - EhhhhtozebecEric Clapton and Steve Winwood - Can't Find My Way Home - Ehhhhtozebec.avi\nFormat                           : AVI\nFormat/Info                      : Audio Video Interleave\nFile size                        : 54.5 MiB\nDuration                         : 5mn 25s\nOverall bit rate                 : 1 402 Kbps\n\nVideo\nID                               : 0\nFormat                           : MPEG-4 Visual\nFormat profile                   : Simple@L1\nFormat settings, BVOP            : No\nFormat settings, QPel            : No\nFormat settings, GMC             : No warppoints\nFormat settings, Matrix          : Default (H.263)\nCodec ID                         : DIVX\nCodec ID/Info                    : Project Mayo\nCodec ID/Hint                    : DivX 4\nDuration                         : 5mn 25s\nBit rate                         : 1 268 Kbps\nWidth                            : 640 pixels\nHeight                           : 360 pixels\nDisplay aspect ratio             : 16:9\nFrame rate                       : 29.970 fps\nResolution                       : 8 bits\nColorimetry                      : 4:2:0\nScan type                        : Progressive\nBits/(Pixel*Frame)               : 0.184\nStream size                      : 49.2 MiB (90%)\nTitle                            : Eric Clapton and Steve Winwood Live from Madison Square Garden\nWriting library                  : Lavc51.55.0\n\nAudio\nID                               : 1\nFormat                           : MPEG Audio\nFormat version                   : Version 1\nFormat profile                   : Layer 3\nMode                             : Joint stereo\nFormat_Settings_ModeExtension    : MS Stereo\nCodec ID                         : 55\nCodec ID/Hint                    : MP3\nDuration                         : 5mn 25s\nBit rate mode                    : Constant\nBit rate                         : 128 Kbps\nChannel(s)                       : 2 channels\nSampling rate                    : 48.0 KHz\nVideo delay                      : 8ms\nStream size                      : 4.97 MiB (9%)\nAlignment                        : Split accross interleaves\nInterleave, duration             : 256 ms (7.67 video frames)\nTitle                            : Eric Clapton and Steve Winwood Live from Madison Square Garden\n\nGeneral\nComplete name                    : C:Documents and SettingsMynameisurlzDesktopAssorted Videos  -  Cat Stevens to The Who - EhhhhtozebecEric Clapton and Steve Winwood - Dear Mr Fantasy - Ehhhhtozebec.avi\nFormat                           : AVI\nFormat/Info                      : Audio Video Interleave\nFile size                        : 81.6 MiB\nDuration                         : 7mn 45s\nOverall bit rate                 : 1 469 Kbps\n\nVideo\nID                               : 0\nFormat                           : MPEG-4 Visual\nFormat profile                   : Simple@L1\nFormat settings, BVOP            : No\nFormat settings, QPel            : No\nFormat settings, GMC             : No warppoints\nFormat settings, Matrix          : Default (H.263)\nCodec ID                         : DIVX\nCodec ID/Info                    : Project Mayo\nCodec ID/Hint                    : DivX 4\nDuration                         : 7mn 45s\nBit rate                         : 1 335 Kbps\nWidth                            : 640 pixels\nHeight                           : 360 pixels\nDisplay aspect ratio             : 16:9\nFrame rate                       : 29.970 fps\nResolution                       : 8 bits\nColorimetry                      : 4:2:0\nScan type                        : Progressive\nBits/(Pixel*Frame)               : 0.193\nStream size                      : 74.1 MiB (91%)\nTitle                            : Eric Clapton and Steve Winwood Live from Madison Square Garden\nWriting library                  : Lavc51.55.0\n\nAudio\nID                               : 1\nFormat                           : MPEG Audio\nFormat version                   : Version 1\nFormat profile                   : Layer 3\nMode                             : Joint stereo\nFormat_Settings_ModeExtension    : MS Stereo\nCodec ID                         : 55\nCodec ID/Hint                    : MP3\nDuration                         : 7mn 45s\nBit rate mode                    : Constant\nBit rate                         : 128 Kbps\nChannel(s)                       : 2 channels\nSampling rate                    : 48.0 KHz\nVideo delay                      : 20ms\nStream size                      : 7.11 MiB (9%)\nAlignment                        : Split accross interleaves\nInterleave, duration             : 256 ms (7.67 video frames)\nTitle                            : Eric Clapton and Steve Winwood Live from Madison Square Garden\n\nGeneral\nComplete name                    : C:Documents and SettingsMynameisurlzDesktopAssorted Videos  -  Cat Stevens to The Who - EhhhhtozebecFleetwood Mac - Go Your Own Way - Ehhhhtozebec.avi\nFormat                           : AVI\nFormat/Info                      : Audio Video Interleave\nFile size                        : 84.9 MiB\nDuration                         : 6mn 25s\nOverall bit rate                 : 1 847 Kbps\nWriting application              : Lavf50.6.0\n\nVideo\nID                               : 0\nFormat                           : AVC\nFormat/Info                      : Advanced Video Codec\nFormat profile                   : &lt;a class=&quot;__cf_email__&quot; href=&quot;/cdn-cgi/l/email-protection&quot; data-cfemail=&quot;95d7f4e6f0f9fcfbf0d5d9a0bba4&quot;&gt;[email&amp;#160;protected]&lt;/a&gt;&lt;script cf-hash='f9e31' type=&quot;text/javascript&quot;&gt;\n/* &lt;![CDATA[ */!function(){try{var t=&quot;currentScript&quot;in document?document.currentScript:function(){for(var t=document.getElementsByTagName(&quot;script&quot;),e=t.length;e--;)if(t[e].getAttribute(&quot;cf-hash&quot;))return t[e]}();if(t&amp;&amp;t.previousSibling){var e,r,n,i,c=t.previousSibling,a=c.getAttribute(&quot;data-cfemail&quot;);if(a){for(e=&quot;&quot;,r=parseInt(a.substr(0,2),16),n=2;a.length-n;n+=2)i=parseInt(a.substr(n,2),16)^r,e+=String.fromCharCode(i);e=document.createTextNode(e),c.parentNode.replaceChild(e,c)}}}catch(u){}}();/* ]]&gt; */&lt;/script&gt;\nFormat settings, CABAC           : No\nFormat settings, ReFrames        : 1 frame\nCodec ID                         : H264\nDuration                         : 6mn 25s\nBit rate                         : 1 642 Kbps\nNominal bit rate                 : 1 400 Kbps\nWidth                            : 720 pixels\nHeight                           : 480 pixels\nDisplay aspect ratio             : 4:3\nFrame rate                       : 25.000 fps\nStandard                         : NTSC\nResolution                       : 8 bits\nColorimetry                      : 4:2:0\nScan type                        : Progressive\nBits/(Pixel*Frame)               : 0.190\nStream size                      : 75.5 MiB (89%)\nWriting library                  : x264 core 54\nEncoding settings                : cabac=0 / ref=1 / deblock=0:0:0 / analyse=0x1:0 / me=dia / subme=7 / brdo=0 / mixed_ref=0 / me_range=4 / chroma_me=0 / trellis=0 / 8x8dct=0 / cqm=0 / deadzone=21,11 / chroma_qp_offset=0 / slices=1 / nr=0 / decimate=1 / mbaff=0 / bframes=0 / keyint=12 / keyint_min=7 / scenecut=0 / rc=abr / bitrate=1400 / ratetol=2.9 / rceq='tex^qComp' / qcomp=0.50 / qpmin=2 / qpmax=31 / qpstep=3 / ip_ratio=1.25\n\nAudio\nID                               : 1\nFormat                           : MPEG Audio\nFormat version                   : Version 1\nFormat profile                   : Layer 3\nMode                             : Joint stereo\nCodec ID                         : 55\nCodec ID/Hint                    : MP3\nDuration                         : 6mn 25s\nBit rate mode                    : Constant\nBit rate                         : 192 Kbps\nChannel(s)                       : 2 channels\nSampling rate                    : 44.1 KHz\nStream size                      : 8.83 MiB (10%)\nAlignment                        : Aligned on interleaves\nInterleave, duration             : 26 ms (0.65 video frame)\n\nGeneral\nComplete name                    : C:Documents and SettingsMynameisurlzDesktopAssorted Videos  -  Cat Stevens to The Who - EhhhhtozebecJames Taylor - Carolina On My Mind - Ehhhhtozebec.avi\nFormat                           : AVI\nFormat/Info                      : Audio Video Interleave\nFormat settings                  : rec\nFile size                        : 37.3 MiB\nDuration                         : 3mn 54s\nOverall bit rate                 : 1 335 Kbps\n\nVideo\nID                               : 0\nFormat                           : MPEG-4 Visual\nFormat settings, BVOP            : No\nFormat settings, QPel            : No\nFormat settings, GMC             : No warppoints\nFormat settings, Matrix          : Default (H.263)\nCodec ID                         : DIVX\nCodec ID/Info                    : Project Mayo\nCodec ID/Hint                    : DivX 4\nDuration                         : 3mn 54s\nBit rate                         : 1 201 Kbps\nWidth                            : 704 pixels\nHeight                           : 480 pixels\nDisplay aspect ratio             : 1.467\nFrame rate                       : 29.970 fps\nResolution                       : 8 bits\nColorimetry                      : 4:2:0\nScan type                        : Progressive\nBits/(Pixel*Frame)               : 0.119\nStream size                      : 33.6 MiB (90%)\nWriting library                  : avc2.0.11.1110\n\nAudio\nID                               : 1\nFormat                           : MPEG Audio\nFormat version                   : Version 1\nFormat profile                   : Layer 3\nMode                             : Joint stereo\nFormat_Settings_ModeExtension    : MS Stereo\nCodec ID                         : 55\nCodec ID/Hint                    : MP3\nDuration                         : 3mn 54s\nBit rate mode                    : Constant\nBit rate                         : 128 Kbps\nChannel(s)                       : 2 channels\nSampling rate                    : 48.0 KHz\nVideo delay                      : 8ms\nStream size                      : 3.58 MiB (10%)\nAlignment                        : Split accross interleaves\nInterleave, duration             : 2494 ms (74.76 video frames)\n\nGeneral\nComplete name                    : C:Documents and SettingsMynameisurlzDesktopAssorted Videos  -  Cat Stevens to The Who - EhhhhtozebecK.d. Lang - Hallelujah - Ehhhhtozebec.avi\nFormat                           : AVI\nFormat/Info                      : Audio Video Interleave\nFile size                        : 71.9 MiB\nDuration                         : 6mn 0s\nOverall bit rate                 : 1 674 Kbps\nWriting library                  : TMPGEnc 4.0 XPress Version. 4.2.3.193\nComment                          : .ooOO ROSA MANNEN 2010 OOoo.\n\nVideo\nID                               : 0\nFormat                           : MPEG-4 Visual\nFormat profile                   : Advanced Simple@L5\nFormat settings, BVOP            : Yes\nFormat settings, QPel            : No\nFormat settings, GMC             : No warppoints\nFormat settings, Matrix          : Default (H.263)\nMuxing mode                      : Packed bitstream\nCodec ID                         : XVID\nCodec ID/Hint                    : XviD\nDuration                         : 6mn 0s\nBit rate                         : 1 501 Kbps\nWidth                            : 720 pixels\nHeight                           : 406 pixels\nDisplay aspect ratio             : 16:9\nFrame rate                       : 25.000 fps\nResolution                       : 8 bits\nColorimetry                      : 4:2:0\nScan type                        : Progressive\nBits/(Pixel*Frame)               : 0.205\nStream size                      : 64.4 MiB (90%)\nWriting library                  : XviD 1.2.1 (UTC 2008-12-04)\n\nAudio\nID                               : 1\nFormat                           : MPEG Audio\nFormat version                   : Version 1\nFormat profile                   : Layer 3\nMode                             : Joint stereo\nCodec ID                         : 55\nCodec ID/Hint                    : MP3\nDuration                         : 6mn 0s\nBit rate mode                    : Constant\nBit rate                         : 160 Kbps\nChannel(s)                       : 2 channels\nSampling rate                    : 48.0 KHz\nStream size                      : 6.87 MiB (10%)\nAlignment                        : Aligned on interleaves\nInterleave, duration             : 40 ms (1.00 video frame)\nInterleave, preload duration     : 384 ms\n\nGeneral\nComplete name                    : C:Documents and SettingsMynameisurlzDesktopAssorted Videos  -  Cat Stevens to The Who - EhhhhtozebecNeil Young - Powderfinger - Ehhhhtozebec.avi\nFormat                           : AVI\nFormat/Info                      : Audio Video Interleave\nFormat settings                  : rec\nFile size                        : 47.7 MiB\nDuration                         : 5mn 57s\nOverall bit rate                 : 1 118 Kbps\n\nVideo\nID                               : 0\nFormat                           : MPEG-4 Visual\nFormat profile                   : Advanced Simple@L5\nFormat settings, BVOP            : Yes\nFormat settings, QPel            : No\nFormat settings, GMC             : No warppoints\nFormat settings, Matrix          : Custom\nCodec ID                         : XVID\nCodec ID/Hint                    : XviD\nDuration                         : 5mn 57s\nBit rate                         : 925 Kbps\nWidth                            : 496 pixels\nHeight                           : 272 pixels\nDisplay aspect ratio             : 16:9\nFrame rate                       : 29.970 fps\nResolution                       : 8 bits\nColorimetry                      : 4:2:0\nScan type                        : Progressive\nBits/(Pixel*Frame)               : 0.229\nStream size                      : 39.4 MiB (83%)\nWriting library                  : XviD 1.1.0 (UTC 2005-11-22)\n\nAudio\nID                               : 1\nFormat                           : MPEG Audio\nFormat version                   : Version 1\nFormat profile                   : Layer 3\nMode                             : Joint stereo\nFormat_Settings_ModeExtension    : MS Stereo\nCodec ID                         : 55\nCodec ID/Hint                    : MP3\nDuration                         : 5mn 57s\nBit rate mode                    : Variable\nBit rate                         : 179 Kbps\nChannel(s)                       : 2 channels\nSampling rate                    : 48.0 KHz\nStream size                      : 7.64 MiB (16%)\nAlignment                        : Aligned on interleaves\nInterleave, duration             : 24 ms (0.72 video frame)\n\nGeneral\nComplete name                    : C:Documents and SettingsMynameisurlzDesktopAssorted Videos  -  Cat Stevens to The Who - EhhhhtozebecSupertramp - School - Ehhhhtozebec.avi\nFormat                           : AVI\nFormat/Info                      : Audio Video Interleave\nFile size                        : 153 MiB\nDuration                         : 5mn 31s\nOverall bit rate                 : 3 876 Kbps\n\nVideo\nID                               : 0\nFormat                           : MPEG-4 Visual\nFormat profile                   : Advanced Simple@L5\nFormat settings, BVOP            : No\nFormat settings, QPel            : No\nFormat settings, GMC             : No warppoints\nFormat settings, Matrix          : Default (H.263)\nCodec ID                         : XVID\nCodec ID/Hint                    : XviD\nDuration                         : 5mn 31s\nBit rate                         : 2 453 Kbps\nWidth                            : 352 pixels\nHeight                           : 288 pixels\nDisplay aspect ratio             : 1.222\nFrame rate                       : 30.000 fps\nResolution                       : 8 bits\nColorimetry                      : 4:2:0\nScan type                        : Progressive\nBits/(Pixel*Frame)               : 0.807\nStream size                      : 97.1 MiB (63%)\nWriting library                  : XviD 1.1.2 (UTC 2006-11-01)\n\nAudio\nFormat                           : PCM\nFormat settings, Endianness      : Little\nFormat settings, Sign            : Unsigned\nCodec ID                         : 1\nCodec ID/Hint                    : Microsoft\nDuration                         : 5mn 31s\nBit rate mode                    : Constant\nBit rate                         : 1 411.2 Kbps\nChannel(s)                       : 2 channels\nSampling rate                    : 44.1 KHz\nResolution                       : 16 bits\nStream size                      : 55.8 MiB (36%)\nInterleave, duration             : 33 ms (1.00 video frame)\n\nGeneral\nComplete name                    : C:Documents and SettingsMynameisurlzDesktopAssorted Videos  -  Cat Stevens to The Who - EhhhhtozebecThe Who (Live) - Superbowl Halftime Feb 7 2010 -  Ehhhhtozebec.avi\nFormat                           : AVI\nFormat/Info                      : Audio Video Interleave\nFile size                        : 367 MiB\nDuration                         : 12mn 11s\nOverall bit rate                 : 4 205 Kbps\nMovie name                       : 00000\nWriting application              : Lavf52.22.1\n\nVideo\nFormat                           : S-Mpeg 4 v2\nCodec ID                         : MP42\nCodec ID/Info                    : Microsoft MPEG-4 V2\nDuration                         : 12mn 11s\nBit rate                         : 4 000 Kbps\nWidth                            : 720 pixels\nHeight                           : 480 pixels\nDisplay aspect ratio             : 1.500\nFrame rate                       : 29.970 fps\nStandard                         : NTSC\nBits/(Pixel*Frame)               : 0.386\nStream size                      : 349 MiB (95%)\n\nAudio\nID                               : 1\nFormat                           : MPEG Audio\nFormat version                   : Version 1\nFormat profile                   : Layer 3\nMode                             : Joint stereo\nFormat_Settings_ModeExtension    : MS Stereo\nCodec ID                         : 55\nCodec ID/Hint                    : MP3\nDuration                         : 12mn 11s\nBit rate mode                    : Constant\nBit rate                         : 192 Kbps\nChannel(s)                       : 2 channels\nSampling rate                    : 44.1 KHz\nStream size                      : 16.8 MiB (5%)\nAlignment                        : Aligned on interleaves\nInterleave, duration             : 26 ms (0.78 video frame)\n\n","torrent":{"xt":"urn:btih:bca4850099da524d34d98bb765e53ffc8730465f","amp;dn":"Assorted+Videos++-++Cevens+to+The+Who+-+Ehhhhtozebec","amp;tr":["udp%3A%2F%2Ftracker.openbittorrent.com%3A80","udp%3A%2F%2Fopen.demonii.com%3A1337","udp%3A%2F%2Ftracker.coppersurfer.tk%3A6969","udp%3A%2F%2Fexodus.desync.com%3A6969"],"infoHash":"bca4850099da524d34d98bb765e53ffc8730465f","infoHashBuffer":{"type":"Buffer","data":[188,164,133,0,153,218,82,77,52,217,139,183,101,229,63,252,135,48,70,95]},"announce":[],"urlList":[]}}